<?xml version="1.0" encoding="UTF-8"?>
<svg width="28px" height="28px" viewBox="0 0 28 28" version="1.1" xmlns="http://www.w3.org/2000/svg" xmlns:xlink="http://www.w3.org/1999/xlink">
    <title>导流牌</title>
    <defs>
        <linearGradient x1="97.8309399%" y1="21.4743655%" x2="0%" y2="21.4743655%" id="linearGradient-1">
            <stop stop-color="#ADD8FF" offset="0%"></stop>
            <stop stop-color="#388BF8" offset="100%"></stop>
        </linearGradient>
    </defs>
    <g id="页面-1" stroke="none" stroke-width="1" fill="none" fill-rule="evenodd">
        <g id="停车引导系统2" transform="translate(-960.000000, -379.000000)">
            <g id="截屏2020-10-14-下午7.35.22" transform="translate(520.000000, 129.000000)">
                <g id="导流牌" transform="translate(440.000000, 250.000000)">
                    <rect id="矩形" opacity="0.214936756" x="0" y="0" width="28" height="28"></rect>
                    <path d="M13,13 L4,13 L4,4 L22.2608696,4 L25,8.5 L22.2608696,13 L15,13 L15,22 L18,22 L18,24 L10,24 L10,22 L13,22 L13,13 Z M20.3124518,5.5 L18,5.56564024 L19.6153598,8.5 L18,11.4343598 L20.3124518,11.5 L22,8.5 L20.3124518,5.5 Z M14.3124518,5.5 L12,5.56564024 L13.6153598,8.5 L12,11.4343598 L14.3124518,11.5 L16,8.5 L14.3124518,5.5 Z M8.31245185,5.5 L6,5.56564024 L7.61535983,8.5 L6,11.4343598 L8.31245185,11.5 L10,8.5 L8.31245185,5.5 Z" id="形状结合" fill="url(#linearGradient-1)"></path>
                </g>
            </g>
        </g>
    </g>
</svg>