<?xml version="1.0" encoding="UTF-8"?>
<svg width="30px" height="32px" viewBox="0 0 30 32" version="1.1" xmlns="http://www.w3.org/2000/svg" xmlns:xlink="http://www.w3.org/1999/xlink">
    <title>定位-绿色</title>
    <g id="页面-1" stroke="none" stroke-width="1" fill="none" fill-rule="evenodd">
        <g id="停车引导系统2" transform="translate(-1180.000000, -556.000000)">
            <g id="截屏2020-10-14-下午7.35.22" transform="translate(520.000000, 129.000000)">
                <g id="定位-绿色" transform="translate(660.000000, 427.000000)">
                    <path d="M8,7.04200098 C8,8.98599414 8.78399655,10.7459922 10.0499967,12.0209922 L15,17 L19.9499756,12.0209922 C21.2659877,10.6984837 22.0033035,8.90771796 22,7.04200116 C22,3.15200604 18.8659779,0 15,0 C11.1339941,0 8,3.15200586 8,7.04200098 Z M15.0000109,9.99887935 L15.000011,9.99887935 C13.3389061,9.99395705 11.995769,8.42772687 12,6.5006153 C12,6.49985045 12,6.4990856 12,6.49832075 L12,6.49832557 C11.9952186,4.57181372 13.3374874,3.00557592 14.9980482,3 C14.9987004,3 14.9993526,3 15,3 L15,3 C16.6611098,3.0049327 18.0042469,4.57117105 18,6.49828262 C18,6.4990413 18,6.49979997 18,6.50055865 L18,6.50057565 C18.0053012,8.42706893 16.6634552,9.99380804 15.002896,10 C15.0019296,10 15.0009631,10 15,10 L15.0000109,9.99887935 Z" id="形状" fill="#0BE6D1" fill-rule="nonzero"></path>
                    <ellipse id="椭圆形" fill-opacity="0.148929196" fill="#3AB5A0" opacity="0.741931734" cx="15" cy="26.8387097" rx="15" ry="5.16129032"></ellipse>
                    <ellipse id="椭圆形备份" fill-opacity="0.247541521" fill="#3AB5A0" opacity="0.555175781" cx="15" cy="21.6774194" rx="12" ry="4"></ellipse>
                </g>
            </g>
        </g>
    </g>
</svg>